<svg xmlns="http://www.w3.org/2000/svg" viewBox="0 0 64 64"><rect width="64" height="64" rx="14" fill="#fff"/><g transform="translate(32 32)"><path fill="#32bcad" d="M-14 0l9-9c2.5-2.5 6.5-2.5 9 0l5 5c1 1 2.5 1 3.5 0l5-5c2.5-2.5 6.5-2.5 9 0L36 0l-9 9c-2.5 2.5-6.5 2.5-9 0l-5-5c-1-1-2.5-1-3.5 0l-5 5c-2.5 2.5-6.5 2.5-9 0z" transform="translate(-11 0) scale(0.55)"/><path fill="#32bcad" d="M-9-13l4-4c2.5-2.5 6.5-2.5 9 0l4 4-3 3c-2.5 2.5-6.5 2.5-9 0z" transform="scale(0.7)"/><path fill="#32bcad" d="M-9 13l4 4c2.5 2.5 6.5 2.5 9 0l4-4-3-3c-2.5-2.5-6.5-2.5-9 0z" transform="scale(0.7)"/><path fill="#32bcad" d="M13-9l4-4c2.5-2.5 2.5-6.5 0-9l-1-1 5-5h2l5 5c2.5 2.5 2.5 6.5 0 9l-9 9z" transform="scale(0.5)" opacity="0"/></g><text x="32" y="56" text-anchor="middle" font-family="Inter,sans-serif" font-size="9" font-weight="800" fill="#32bcad">PIX</text></svg>
