<svg xmlns="http://www.w3.org/2000/svg" viewBox="0 0 60 60" fill="none">
  <rect x="2" y="2" width="56" height="56" rx="14" fill="url(#caktoGrad2)"/>
  <path d="M30 18c-7 0-12 5-12 12s5 12 12 12c4 0 7-1.5 9-4l-4-3c-1.2 1.4-3 2.2-5 2.2-4 0-7-2.8-7-7.2 0-4.4 3-7.2 7-7.2 2 0 3.8.8 5 2.2l4-3c-2-2.5-5-4-9-4z" fill="#fff"/>
  <defs>
    <linearGradient id="caktoGrad2" x1="2" y1="2" x2="58" y2="58" gradientUnits="userSpaceOnUse">
      <stop offset="0" stop-color="#10b981"/>
      <stop offset="1" stop-color="#059669"/>
    </linearGradient>
  </defs>
</svg>
