<svg xmlns="http://www.w3.org/2000/svg" viewBox="127 317 753 355"><g transform="translate(0.000000,1000.000000) scale(0.100000,-0.100000)"><path fill="#F97316" d="M5580 6595 c-678 -11 -805 -15 -860 -29 -104 -27 -130 -37 -130 -51 0 -8 -55 -56 -121 -106 -336 -253 -564 -485 -772 -784 -86 -124 -94 -127 -296 -137 -191 -9 -235 -15 -701 -94 -392 -67 -392 -75 0 -54 453 23 811 71 836 111 3 5 10 9 15 9 19 0 -1 -18 -47 -44 -25 -14 -51 -23 -57 -19 -6 4 -7 1 -2 -7 6 -10 3 -12 -13 -8 -12 4 -20 2 -17 -2 5 -8 -58 -30 -148 -50 -89 -19 -352 -49 -547 -60 -212 -13 -234 -19 -245 -70 -25 -113 -474 -359 -686 -377 l-67 -6 -10 -38 -10 -39 77 0 c185 0 253 -79 211 -242 -39 -150 -96 -211 -208 -223 -31 -3 -63 -7 -71 -8 -7 -1 26 -30 74 -64 l89 -63 186 0 186 0 19 58 c175 515 975 598 1265 132 8 -13 13 -13 32 -1 22 12 22 12 7 -4 -16 -16 -15 -21 13 -77 29 -59 64 -181 71 -248 l3 -35 1432 -3 1432 -2 4 22 c2 13 9 52 15 88 7 40 31 105 62 168 259 530 1010 539 1271 17 17 -33 32 -62 33 -63 5 -6 185 18 255 34 79 18 128 50 192 127 l48 58 0 238 c0 222 1 240 20 263 l19 25 -70 6 c-175 15 -295 128 -320 302 -22 158 2 178 221 185 l169 5 -79 162 -78 162 -218 3 c-325 5 -313 -3 -588 405 -182 271 -190 288 -162 342 23 44 53 51 224 52 l157 1 -45 21 c-56 28 -781 31 -2070 12z m1391 -62 c57 -26 115 -76 136 -117 44 -84 263 -983 263 -1078 0 -16 -27 -122 -60 -235 -34 -113 -59 -207 -58 -208 2 -2 50 -8 108 -15 278 -31 465 -164 551 -391 l19 -50 -69 70 c-357 362 -951 340 -1262 -47 -60 -74 -153 -249 -165 -309 -3 -17 -17 -42 -31 -55 l-25 -23 -1275 -3 c-1122 -2 -1279 0 -1306 13 -36 18 -45 19 -29 3 7 -7 12 -17 12 -22 -1 -10 -17 12 -19 24 -15 117 -170 388 -268 470 -352 294 -892 259 -1194 -78 l-50 -57 21 55 c106 270 316 394 665 395 290 0 469 -75 593 -250 l21 -30 1 307 0 306 80 169 c44 92 85 170 91 172 7 2 10 -2 6 -10 -4 -8 -36 -86 -72 -174 l-65 -160 0 -337 0 -337 57 -83 c57 -85 126 -219 139 -273 14 -58 -36 -55 810 -55 l784 0 2 553 3 552 61 142 c34 78 56 139 50 135 -27 -16 -1259 -38 -1263 -22 -3 10 -17 17 -39 18 l-34 3 0 -115 c0 -157 -10 -169 -130 -167 -45 1 -91 6 -102 12 -10 5 -23 7 -28 4 -6 -4 -9 -3 -8 2 5 14 -47 70 -72 78 -19 6 -22 4 -17 -9 4 -11 3 -15 -4 -11 -5 4 -8 12 -6 18 2 7 -4 23 -14 36 -38 48 -27 204 16 249 19 20 63 75 97 122 116 158 601 624 770 738 153 104 112 101 1263 99 l1000 -2 46 -22z m-2754 -1315 c-1 -51 -3 -12 -3 87 0 99 2 141 3 93 2 -48 2 -129 0 -180z m1013 -38 c0 -82 -39 -100 -222 -100 -172 0 -206 12 -222 74 -21 83 31 110 218 116 l151 5 38 -37 c20 -21 37 -47 37 -58z m2644 49 c23 -27 38 -98 18 -85 -4 2 -6 -14 -4 -36 3 -23 0 -38 -5 -35 -5 3 -7 -10 -5 -30 3 -25 1 -34 -7 -29 -7 5 -9 1 -5 -9 9 -21 -24 -68 -42 -61 -9 3 -12 1 -9 -4 4 -6 -42 -10 -129 -10 -212 0 -225 11 -201 170 24 162 21 159 217 160 l146 0 26 -31z m-2121 -1196 c-354 -2 -932 -2 -1286 0 -353 1 -64 2 643 2 707 0 996 -1 643 -2z M6817 5715 c-457 -208 -402 -194 -827 -206 -190 -5 -367 -10 -394 -12 l-48 -2 -59 -140 -58 -140 -1 -547 0 -548 463 0 c254 0 468 4 474 8 7 5 20 33 29 63 9 30 35 90 57 134 23 44 41 80 39 80 -6 0 95 112 150 167 112 110 279 192 450 222 98 17 79 -16 167 289 l73 254 -59 273 c-33 151 -64 275 -69 276 -5 1 -179 -76 -387 -171z m-122 -435 c-4 -6 47 -10 147 -10 164 -1 178 -5 207 -57 21 -40 13 -72 -29 -113 -22 -22 -40 -35 -40 -30 0 6 -60 10 -147 10 -141 0 -147 1 -180 26 -49 37 -47 89 5 143 37 40 49 50 37 31z M6695 5189 c3 -4 1 -10 -5 -14 -29 -18 15 -25 150 -25 151 0 183 9 145 40 -15 13 -298 12 -290 -1z M3973 5601 c-36 -23 -43 -45 -48 -165 -4 -102 13 -126 91 -126 l44 0 0 61 c0 36 -4 58 -10 54 -5 -3 -3 7 5 22 9 17 15 57 15 101 l0 72 -32 0 c-18 0 -47 -9 -65 -19z M4865 5189 c3 -4 1 -10 -5 -14 -28 -18 14 -25 144 -25 149 0 187 10 152 39 -16 14 -299 14 -291 0z M7595 5170 c-11 -12 -23 -51 -30 -95 l-12 -75 119 0 c136 0 129 -5 143 104 4 33 9 65 12 73 10 25 -209 18 -232 -7z M7812 6603 c-21 -4 -20 -7 22 -51 24 -26 60 -66 79 -89 l34 -42 28 52 c16 29 31 54 34 57 17 14 41 62 36 70 -6 10 -187 12 -233 3z M2443 5283 c15 -2 37 -2 50 0 12 2 0 4 -28 4 -27 0 -38 -2 -22 -4z"/></g><g transform="translate(0.000000,1000.000000) scale(0.100000,-0.100000)"><path fill="#9aa6b8" d="M5508 6693 c382 -2 1003 -2 1380 0 378 1 66 2 -693 2 -759 0 -1068 -1 -687 -2z M7958 6693 c17 -2 47 -2 65 0 17 2 3 4 -33 4 -36 0 -50 -2 -32 -4z M5624 6047 l-122 -422 28 -3 c15 -2 43 1 61 6 l34 8 92 410 c51 225 92 412 93 417 0 4 -15 7 -32 7 l-33 0 -121 -423z M8664 5185 c0 -60 1 -84 3 -52 2 32 2 81 0 110 -2 29 -3 3 -3 -58z M2103 5243 c32 -2 81 -2 110 0 29 2 3 3 -58 3 -60 0 -84 -1 -52 -3z M2236 5135 c-84 -63 -494 -173 -497 -132 0 6 -9 -6 -19 -28 l-19 -40 41 -3 c86 -7 479 153 514 209 7 12 2 11 -20 -6z M1564 4610 c0 -52 1 -74 3 -47 2 26 2 68 0 95 -2 26 -3 4 -3 -48z M1660 4480 l0 -120 65 0 c117 0 141 26 133 144 -5 90 -13 96 -114 96 l-84 0 0 -120z M8356 4234 c-73 -67 -130 -89 -288 -111 -146 -20 -132 -13 -123 -63 l7 -41 56 6 c267 29 358 76 396 206 20 67 22 67 -48 3z M1592 4208 c-36 -36 48 -145 182 -234 l56 -37 93 5 c108 6 173 30 206 77 l22 31 -149 0 -149 0 -89 62 c-49 33 -102 72 -117 85 -33 26 -38 28 -55 11z M2785 4173 c-22 -14 -41 -27 -43 -28 -2 -2 20 -26 47 -53 98 -98 49 -165 -84 -117 -56 21 -55 22 -55 -50 0 -36 2 -65 4 -65 2 0 23 7 46 15 144 51 193 -42 70 -133 -26 -20 -29 -26 -19 -38 14 -17 82 -54 99 -54 24 0 6 17 -42 38 -61 27 -60 37 1 16 46 -16 60 -10 61 26 0 32 39 80 64 80 25 0 66 -41 66 -66 0 -23 16 -24 47 -1 l29 22 -23 34 c-43 63 -23 95 55 89 l49 -3 2 42 2 43 -44 -6 c-99 -14 -115 38 -36 121 56 59 56 66 -1 95 -53 27 -59 26 -66 -19 -8 -53 -45 -115 -70 -119 -36 -5 -84 71 -84 134 0 32 -25 31 -75 -3z m205 -193 c45 -45 8 -130 -57 -130 -31 0 -73 42 -73 73 0 65 85 102 130 57z M7105 4183 c-67 -35 -67 -39 -14 -91 100 -98 54 -165 -81 -117 -54 19 -60 15 -60 -50 0 -64 6 -70 54 -50 134 56 188 -18 85 -117 l-49 -48 38 -24 c44 -28 82 -41 82 -28 0 6 -12 15 -27 20 -16 6 -37 18 -48 27 l-20 17 20 -7 c72 -26 83 -24 89 10 20 106 94 113 131 13 l10 -27 33 25 32 26 -20 33 c-43 70 -18 104 69 92 l37 -5 3 44 2 43 -50 -6 c-98 -11 -112 47 -30 129 27 27 49 51 47 53 -75 58 -118 69 -118 30 0 -31 -25 -93 -47 -117 -38 -42 -84 -3 -103 88 -12 58 -19 62 -65 37z m194 -209 c28 -35 26 -69 -4 -99 -47 -48 -125 -16 -125 51 0 71 86 103 129 48z M7595 4063 c53 -130 15 -306 -90 -407 -253 -246 -699 -20 -637 322 l9 52 -46 -27 c-25 -14 -54 -31 -64 -37 -46 -27 -2 -218 73 -325 215 -306 682 -266 846 72 51 107 70 294 31 310 -7 3 -38 17 -71 31 -51 23 -57 24 -51 9z M3295 4053 c65 -169 -22 -381 -192 -465 -262 -129 -560 73 -541 369 l5 73 -36 -22 c-102 -61 -102 -60 -77 -180 125 -585 1002 -480 974 117 l-3 70 -55 27 c-66 32 -85 35 -75 11z M3200 3935 c0 -37 -4 -55 -12 -55 -7 0 -5 -5 6 -11 30 -18 50 52 30 105 -13 33 -24 14 -24 -39z M7506 3928 c2 -87 24 -90 24 -4 0 46 -4 66 -12 66 -9 0 -13 -18 -12 -62z M7408 3738 c11 -14 7 -19 -37 -40 -28 -12 -50 -29 -51 -35 0 -18 15 -16 59 6 57 29 65 44 39 67 -16 13 -19 14 -10 2z M3095 3720 c-14 -23 -67 -43 -77 -28 -7 10 -8 8 -4 -5 3 -10 6 -23 6 -28 0 -6 10 -7 23 -4 34 10 97 56 91 66 -7 12 -31 11 -39 -1z M3488 3463 c34 -2 88 -2 120 0 31 2 3 3 -63 3 -66 0 -92 -1 -57 -3z M6668 3463 c34 -2 90 -2 125 0 34 2 6 3 -63 3 -69 0 -97 -1 -62 -3z M2028 3443 c18 -2 45 -2 60 0 15 2 0 4 -33 4 -33 0 -45 -2 -27 -4z M8013 3443 c15 -2 39 -2 55 0 15 2 2 4 -28 4 -30 0 -43 -2 -27 -4z M1558 3433 c17 -2 47 -2 65 0 17 2 3 4 -33 4 -36 0 -50 -2 -32 -4z M8423 3433 c15 -2 39 -2 55 0 15 2 2 4 -28 4 -30 0 -43 -2 -27 -4z"/></g><g transform="translate(0.000000,1000.000000) scale(0.100000,-0.100000)"><path fill="#2e3d52" d="M4267 6421 c-285 -195 -530 -429 -739 -709 -98 -130 -102 -139 -55 -140 78 -3 99 12 169 115 154 227 424 512 651 688 63 50 116 93 116 98 3 25 -64 1 -142 -52z M4955 6468 c-97 -7 -174 -30 -245 -76 -123 -79 -591 -514 -689 -639 l-33 -43 61 0 c75 0 101 -20 101 -79 0 -44 18 -53 100 -45 25 2 277 9 560 15 283 6 534 14 558 18 l44 6 118 405 c64 223 120 416 124 428 l8 24 -309 -4 c-169 -1 -348 -6 -398 -10z M5876 6372 c-58 -248 -167 -744 -164 -747 8 -8 606 15 647 25 25 6 189 77 365 157 177 80 343 155 369 167 57 25 57 10 -8 241 -78 272 -41 258 -687 262 l-496 3 -26 -108z M7385 6470 c-9 -14 328 -517 377 -562 61 -56 112 -68 305 -68 90 0 163 3 163 6 0 36 -294 459 -405 582 l-47 52 -193 0 c-119 0 -196 -4 -200 -10z"/></g><g transform="translate(0.000000,1000.000000) scale(0.100000,-0.100000)"><path fill="#e25555" d="M4154 5385 c0 -66 1 -92 3 -57 2 34 2 88 0 120 -2 31 -3 3 -3 -63z M4214 5305 c0 -99 2 -138 3 -87 2 51 2 132 0 180 -1 48 -3 6 -3 -93z M4053 5445 c-6 -14 -7 -23 -2 -19 5 3 9 -21 9 -55 l0 -60 -42 -4 -43 -4 43 -1 c52 -2 54 2 50 96 -3 63 -4 68 -15 47z M8137 5343 c-35 -34 14 -197 74 -247 80 -68 281 -95 340 -47 51 41 38 265 -17 290 -27 12 -386 16 -397 4z M6687 5283 c-19 -18 6 -22 157 -25 90 -2 162 0 159 5 -2 4 -74 7 -159 7 -101 0 -153 3 -149 10 7 11 2 13 -8 3z M5005 5270 l-150 -5 162 -5 c128 -4 159 -2 151 8 -6 6 -11 11 -12 10 0 -1 -68 -5 -151 -8z M5425 4660 c0 -300 1 -422 2 -272 2 149 2 395 0 545 -1 149 -2 27 -2 -273z M4928 5083 c45 -2 119 -2 165 0 45 1 8 3 -83 3 -91 0 -128 -2 -82 -3z M6825 5083 c90 -2 152 -8 156 -14 4 -7 9 -5 12 5 6 14 -11 16 -156 14 l-162 -2 150 -3z M4467 4033 c354 -2 932 -2 1286 0 353 1 64 2 -643 2 -707 0 -996 -1 -643 -2z"/></g><g transform="translate(0.000000,1000.000000) scale(0.100000,-0.100000)"><path fill="#211531" d="M4722 6679 c-412 -54 -943 -458 -1321 -1004 -78 -113 -39 -99 -403 -145 -726 -93 -1029 -140 -1086 -169 -102 -52 -247 -268 -313 -466 -22 -66 -23 -84 -24 -333 l0 -264 -27 -14 c-57 -30 -70 -102 -33 -174 40 -77 244 -240 330 -265 107 -31 417 -51 491 -32 30 8 30 7 48 -50 30 -95 77 -174 147 -244 l66 -67 -221 -6 c-122 -4 -390 -10 -596 -15 -225 -5 1061 -8 3225 -8 2146 0 3467 4 3270 8 -181 5 -412 11 -511 15 l-181 6 67 67 c81 82 133 179 158 299 13 66 20 81 32 76 115 -48 570 32 687 122 l33 25 0 170 c0 181 -11 219 -65 219 -13 0 -15 28 -15 220 l0 220 70 57 c100 82 110 107 110 272 l0 133 -39 37 c-21 20 -52 46 -69 59 -21 15 -51 64 -97 160 -120 247 -249 467 -389 661 -79 108 -78 79 -6 201 70 117 78 145 56 187 -25 50 -54 56 -253 49 -98 -3 -189 -6 -203 -5 -152 6 -2891 4 -2938 -2z m2933 -94 l40 -20 -167 -5 c-166 -5 -168 -5 -195 -33 -55 -55 -49 -71 159 -377 266 -393 249 -382 578 -390 l215 -5 77 -155 c43 -85 78 -158 78 -162 0 -5 -70 -8 -155 -8 -220 0 -240 -14 -233 -156 9 -185 131 -311 311 -322 42 -2 77 -6 77 -8 0 -2 -9 -18 -20 -36 -18 -31 -20 -51 -20 -270 l0 -238 -65 -69 c-81 -85 -103 -96 -250 -121 -175 -30 -180 -29 -204 26 -154 346 -601 501 -956 329 -212 -102 -355 -307 -390 -557 l-6 -48 -1439 0 -1439 0 -6 48 c-42 298 -232 526 -503 601 -362 100 -750 -81 -872 -407 -28 -74 -20 -72 -216 -72 l-171 0 -96 67 c-114 80 -115 83 -34 83 122 1 191 58 226 190 54 198 4 260 -208 260 l-124 0 7 52 c10 69 8 68 86 68 263 0 730 283 681 414 l-11 26 98 0 c254 0 682 43 847 85 88 22 200 64 192 71 -2 3 -21 -3 -42 -12 -92 -38 -373 -74 -720 -93 -268 -15 -646 -19 -634 -7 15 16 1102 152 1279 161 175 9 183 13 266 134 199 288 441 535 760 773 120 91 146 123 114 143 -28 17 27 37 160 58 14 3 669 4 1455 3 1404 -1 1431 -1 1470 -21z m395 14 c0 -6 -23 -52 -52 -101 l-51 -89 -31 38 c-17 21 -54 63 -83 94 -29 31 -53 59 -53 62 0 4 61 7 135 7 93 0 135 -3 135 -11z m-3641 -126 c0 -5 -53 -48 -116 -98 -227 -176 -497 -461 -650 -688 -72 -104 -90 -117 -175 -117 -48 0 -50 -6 28 103 206 285 488 560 767 748 80 53 149 78 146 52z m3416 -45 c111 -123 405 -546 405 -582 0 -3 -73 -6 -163 -6 -193 0 -244 12 -305 68 -49 45 -386 548 -377 562 4 6 81 10 200 10 l193 0 47 -52z m709 -1089 c55 -25 68 -249 17 -290 -59 -48 -260 -21 -340 47 -60 50 -109 213 -74 247 11 12 370 8 397 -4z m-6190 -98 c41 -65 -426 -311 -590 -311 -64 0 -63 -5 -19 79 69 129 148 225 191 232 63 10 412 10 418 0z m-503 -658 c8 -9 15 -47 17 -92 5 -109 -8 -125 -117 -129 l-81 -4 0 121 0 121 84 0 c65 0 87 -4 97 -17z m6563 -354 c-35 -119 -134 -176 -344 -199 -116 -13 -110 -15 -117 38 l-5 39 68 7 c187 19 274 49 354 123 65 61 64 61 44 -8z m-6763 -25 c7 -9 58 -47 113 -85 l99 -69 149 0 149 0 -22 -31 c-57 -80 -264 -108 -354 -47 -132 88 -224 206 -188 241 12 12 40 7 54 -9z m1219 -17 c0 -91 63 -167 105 -127 23 22 31 41 49 122 7 32 35 27 94 -19 l33 -25 -42 -36 c-117 -100 -59 -177 88 -117 41 17 43 14 43 -63 0 -62 -1 -64 -22 -58 -181 52 -239 -11 -106 -115 45 -37 42 -47 -33 -85 -54 -27 -54 -27 -63 36 -20 142 -101 144 -136 5 l-16 -65 -53 26 c-70 35 -70 41 -11 102 60 62 65 100 17 116 -26 9 -43 7 -138 -21 -20 -6 -33 50 -23 102 5 28 9 33 23 26 9 -5 39 -14 66 -20 125 -29 140 51 28 142 -32 26 -29 33 30 67 63 36 67 36 67 7z m4319 -62 c31 -117 106 -103 132 24 15 71 10 69 77 31 60 -35 62 -40 24 -72 -116 -99 -89 -171 50 -131 l67 20 6 -38 c7 -41 -1 -99 -15 -99 -4 0 -27 7 -50 15 -129 45 -173 -15 -80 -108 59 -59 59 -56 17 -84 -73 -50 -82 -48 -95 17 -29 137 -115 143 -138 10 -12 -74 -10 -72 -57 -49 -82 41 -83 46 -32 96 118 113 70 159 -112 107 -22 -6 -23 -4 -23 58 0 80 -1 79 63 57 134 -47 175 14 76 113 l-48 48 32 24 c18 14 44 29 57 34 27 10 25 14 49 -73z m538 -102 c39 -16 19 -212 -34 -319 -174 -357 -705 -359 -881 -3 -68 140 -72 242 -9 280 88 55 85 55 75 -3 -37 -203 132 -412 346 -426 279 -18 479 253 380 512 -5 14 4 12 52 -10 33 -14 64 -28 71 -31z m-4347 19 l55 -27 -1 -100 c-4 -617 -917 -645 -980 -30 l-6 62 43 30 c89 61 84 64 84 -45 0 -464 662 -523 744 -67 10 57 4 141 -14 188 -10 24 9 21 75 -11z m3306 -222 c17 -102 71 -206 149 -289 l63 -67 -1798 0 -1799 0 64 67 c77 82 133 189 148 286 l11 68 1533 -3 c913 -1 1547 1 1566 7 47 14 50 11 63 -69z M4883 6545 c-134 -24 -203 -66 -423 -254 -253 -216 -582 -561 -623 -654 -6 -15 -20 -30 -30 -33 -76 -24 -57 -284 21 -284 8 0 30 -18 49 -40 53 -62 190 -84 247 -39 25 20 26 23 26 140 0 87 3 121 13 124 16 5 1349 37 1353 32 2 -2 -26 -74 -61 -161 l-65 -158 0 -549 0 -549 -781 -2 c-429 -2 -789 0 -799 4 -10 4 -21 21 -25 40 -11 54 -81 195 -140 283 l-55 83 0 342 0 342 65 163 c36 89 65 166 65 171 0 5 -38 -69 -85 -165 l-85 -173 0 -345 0 -345 66 -99 c65 -98 134 -237 134 -272 0 -10 11 -29 25 -42 l24 -25 1289 0 c1473 0 1316 -12 1352 100 105 322 356 528 711 585 20 3 43 13 52 23 15 16 167 515 167 547 0 42 -147 685 -198 867 -75 265 -108 308 -261 344 -81 20 -1922 18 -2028 -1z m771 -87 c-4 -13 -60 -205 -124 -428 l-118 -405 -44 -6 c-24 -4 -275 -12 -558 -18 -283 -6 -535 -13 -560 -15 -82 -8 -100 1 -100 45 0 59 -26 79 -101 79 l-61 0 33 43 c121 155 610 598 732 663 110 58 150 62 550 63 l358 1 -7 -22z m1286 -4 c79 -37 94 -63 145 -239 65 -231 65 -216 8 -241 -26 -12 -192 -87 -369 -167 -176 -80 -340 -151 -365 -157 -41 -10 -639 -33 -647 -25 -3 3 106 499 164 748 l26 108 496 -3 c482 -3 498 -4 542 -24z m-1132 -1 c-3 -10 -44 -198 -93 -418 -49 -220 -90 -402 -92 -404 -10 -13 -126 -13 -121 0 3 8 59 200 124 426 l119 413 34 0 c27 0 32 -3 29 -17z m1460 -806 c34 -155 62 -293 62 -307 0 -30 -139 -511 -151 -525 -5 -5 -49 -17 -97 -26 -323 -62 -559 -270 -678 -598 -13 -35 -25 -65 -27 -67 -1 -2 -216 -4 -477 -4 l-475 -2 -3 537 -2 536 69 171 c38 93 72 172 74 174 2 3 166 9 363 14 491 13 407 -7 899 216 198 90 365 164 371 164 5 0 38 -127 72 -283z m-3198 -183 l0 -166 -55 4 c-89 7 -95 18 -95 161 0 149 10 167 97 167 l53 0 0 -166z M6665 5248 c-51 -29 -61 -93 -20 -133 24 -25 27 -25 190 -25 l167 0 30 30 c37 37 34 81 -8 118 -29 25 -317 34 -359 10z m330 -73 c0 -19 -8 -20 -149 -23 -150 -3 -174 2 -163 33 11 27 312 18 312 -10z M4835 5248 c-52 -28 -62 -92 -20 -133 24 -25 27 -25 189 -25 193 0 220 11 220 85 0 74 -28 85 -212 85 -94 0 -165 -5 -177 -12z m330 -73 c0 -19 -8 -20 -154 -23 -158 -3 -185 4 -159 35 20 25 313 13 313 -12z M7553 5250 c-31 -13 -45 -44 -60 -135 -28 -172 -25 -175 172 -175 186 0 185 -1 209 153 17 114 14 137 -24 157 -23 12 -266 12 -297 0z m277 -62 c0 -12 -18 -128 -26 -165 -7 -36 -264 -36 -264 0 0 24 17 129 26 160 7 21 264 27 264 5z M2897 3988 c-9 -7 -20 -24 -25 -38 -28 -75 78 -132 123 -67 44 63 -37 150 -98 105z M7196 3979 c-46 -36 -26 -110 34 -124 39 -9 80 27 80 71 0 66 -61 95 -114 53z"/></g></svg>